<?xml version="1.0" standalone="no"?>
<!DOCTYPE svg PUBLIC "-//W3C//DTD SVG 20010904//EN"
 "http://www.w3.org/TR/2001/REC-SVG-20010904/DTD/svg10.dtd">
<svg version="1.0" xmlns="http://www.w3.org/2000/svg"
 width="200.000000pt" height="200.000000pt" viewBox="0 0 200.000000 200.000000"
 preserveAspectRatio="xMidYMid meet">

<g transform="translate(0.000000,200.000000) scale(0.100000,-0.100000)"
fill="#000000" stroke="none">
<path d="M938 1256 l-3 -404 -99 90 -98 90 -34 -33 c-19 -18 -33 -36 -32 -39
2 -4 69 -66 150 -138 98 -88 156 -132 170 -132 15 0 74 46 168 130 80 71 146
133 147 137 1 4 -10 24 -26 43 l-29 34 -67 -59 c-38 -33 -85 -75 -107 -93
l-38 -34 0 406 0 406 -50 0 -50 0 -2 -404z"/>
<path d="M290 538 c0 -75 4 -99 20 -125 39 -65 16 -63 692 -63 597 0 614 1
646 20 46 28 62 73 62 175 l0 85 -50 0 -49 0 -3 -87 -3 -88 -605 0 -605 0 -3
88 -3 87 -49 0 -50 0 0 -92z"/>
</g>
</svg>
