<svg xmlns="http://www.w3.org/2000/svg" enable-background="new 0 0 66 66" viewBox="0 0 66 66"><path d="M62,2.7H4c-1.7,0-3,1.3-3,3v41.5c0,1.7,1.3,3,3,3h21.9l-2.2,5.9h-3.8c-1.1,0-2,0.9-2,2v3.1c0,1.1,0.9,2,2,2h26.2
			c1.1,0,2-0.9,2-2v-3.1c0-1.1-0.9-2-2-2h-3.8l-2.2-5.9H62c1.7,0,3-1.3,3-3V5.7C65,4.1,63.7,2.7,62,2.7z M4,4.7h58c0.6,0,1,0.4,1,1
			v33.9H3V5.7C3,5.2,3.4,4.7,4,4.7z M46.1,61.3H19.9v-3.1h26.2L46.1,61.3z M40.1,56.2H25.9l2.2-5.9h9.9L40.1,56.2z M62,48.2H4
			c-0.6,0-1-0.4-1-1v-5.6h60v5.6C63,47.8,62.6,48.2,62,48.2z"/><path d="M35.8 19.1c.2.4.5.6.9.6h1.5c-.1 2.4-1.2 9-10.5 12.6-.4.2-.7.6-.6 1 0 .4.3.8.8.9 8.6 2 17.1-2.6 18.1-14.5h1.4c.9 0 1.3-1 .7-1.7l-5.3-5.8c-.4-.4-1.1-.4-1.5 0L36 18C35.7 18.3 35.6 18.7 35.8 19.1zM42 14.3l3.1 3.3H45c-.5 0-1 .4-1 1-.4 8-4 13.6-12.1 13.8 7.1-4.1 8.6-10.4 8.3-13.9-.1-.5-.5-.9-1-.9H39L42 14.3zM23.2 30.8c.2.2.5.3.7.3s.5-.1.7-.3L30 25c.3-.3.3-.7.2-1.1s-.5-.6-.9-.6h-1.5c.1-2.4 1.2-9 10.5-12.6.4-.2.7-.6.6-1 0-.4-.3-.8-.8-.9C29.2 6.8 21 11.6 20 23.3h-1.4c-.4 0-.8.2-.9.6s-.1.8.2 1.1L23.2 30.8zM21 25.3c.5 0 1-.4 1-1 .4-8 4-13.6 12.1-13.8-7.1 4.1-8.6 10.4-8.3 13.9.1.5.5.9 1 .9H27L24 28.6 21 25.3 21 25.3zM35.5 43.9h-5c-.6 0-1 .4-1 1s.4 1 1 1h5c.6 0 1-.4 1-1S36.1 43.9 35.5 43.9zM17.1 43.9h-2c-.6 0-1 .4-1 1s.4 1 1 1h2c.6 0 1-.4 1-1S17.7 43.9 17.1 43.9zM10.1 43.9h-2c-.6 0-1 .4-1 1s.4 1 1 1h2c.6 0 1-.4 1-1S10.7 43.9 10.1 43.9zM50.1 11.7h7.2c.6 0 1-.4 1-1s-.4-1-1-1h-7.2c-.6 0-1 .4-1 1S49.5 11.7 50.1 11.7zM57.3 17.4h-4.2c-.6 0-1 .4-1 1s.4 1 1 1h4.2c.6 0 1-.4 1-1S57.8 17.4 57.3 17.4zM57.3 25h-4.2c-.6 0-1 .4-1 1s.4 1 1 1h4.2c.6 0 1-.4 1-1S57.8 25 57.3 25zM50.1 34.7h7.2c.6 0 1-.4 1-1s-.4-1-1-1h-7.2c-.6 0-1 .4-1 1S49.5 34.7 50.1 34.7zM8.7 11.7h7.2c.6 0 1-.4 1-1s-.4-1-1-1H8.7c-.6 0-1 .4-1 1S8.2 11.7 8.7 11.7zM8.7 19.4h4.2c.6 0 1-.4 1-1s-.4-1-1-1H8.7c-.6 0-1 .4-1 1S8.2 19.4 8.7 19.4zM8.7 27h4.2c.6 0 1-.4 1-1s-.4-1-1-1H8.7c-.6 0-1 .4-1 1S8.2 27 8.7 27zM8.7 34.7h7.2c.6 0 1-.4 1-1s-.4-1-1-1H8.7c-.6 0-1 .4-1 1S8.2 34.7 8.7 34.7z"/></svg>