<svg xmlns="http://www.w3.org/2000/svg" enable-background="new 0 0 1024 1024" viewBox="0 0 1024 1024"><path d="M931.9,244.3c-13.7,35.4-27.3,70.7-41,106.1c-21.8,56.4-43.6,112.7-65.3,169.1c-5,12.9-10,25.9-15,38.8
				c9.6-7.3,19.3-14.7,28.9-22c-15.5,0-31.1,0-46.6,0c-37.1,0-74.3,0-111.4,0c-44.9,0-89.8,0-134.7,0c-38.8,0-77.6,0-116.4,0
				c-18.9,0-37.8-0.5-56.7,0c-0.3,0-0.5,0-0.8,0c9.6,7.3,19.3,14.7,28.9,22c-4.8-14.6-9.6-29.2-14.4-43.9
				c-11.6-35.1-23.1-70.2-34.7-105.3c-13.9-42.3-27.8-84.6-41.8-126.9c-12.1-36.7-24.2-73.4-36.2-110.1
				c-5.9-17.8-11.4-35.7-17.6-53.4c-0.1-0.3-0.2-0.5-0.3-0.8c-4.2-12.6-15.3-22-28.9-22c-48,0-96,0-144,0c-6.9,0-13.8,0-20.7,0
				c-15.7,0-30.7,13.8-30,30c0.7,16.3,13.2,30,30,30c48,0,96,0,144,0c6.9,0,13.8,0,20.7,0c-9.6-7.3-19.3-14.7-28.9-22
				c4.8,14.6,9.6,29.2,14.4,43.9c11.6,35.1,23.1,70.2,34.7,105.3C262,325.4,276,367.7,289.9,410c12.1,36.7,24.2,73.4,36.2,110.1
				c5.9,17.8,11.4,35.7,17.6,53.4c0.1,0.3,0.2,0.5,0.3,0.8c4.2,12.6,15.3,22,28.9,22c15.5,0,31.1,0,46.6,0c37.1,0,74.3,0,111.4,0
				c44.9,0,89.8,0,134.7,0c38.8,0,77.6,0,116.4,0c18.9,0,37.8,0.6,56.7,0c0.3,0,0.5,0,0.8,0c14.3,0,24.1-9.5,28.9-22
				c13.7-35.4,27.3-70.7,41-106.1c21.8-56.4,43.6-112.7,65.3-169.1c5-12.9,10-25.9,15-38.8c2.6-6.8,0.5-17-3-23.1
				c-3.6-6.2-10.8-12.2-17.9-13.8c-7.7-1.7-16.3-1.4-23.1,3C938.7,230.9,934.8,236.7,931.9,244.3L931.9,244.3z"/><path d="M347 551.1c-16.2 28.9-32.5 57.7-48.7 86.6-2.3 4.2-4.7 8.3-7 12.5-11.1 19.7 2.9 45.1 25.9 45.1 17.3 0 34.6 0 51.9 0 41.6 0 83.1 0 124.7 0 50.3 0 100.6 0 150.9 0 43.5 0 87 0 130.5 0 21.1 0 42.3.4 63.5 0 .3 0 .6 0 .9 0 15.7 0 30.7-13.8 30-30-.7-16.3-13.2-30-30-30-17.3 0-34.6 0-51.9 0-41.6 0-83.1 0-124.7 0-50.3 0-100.6 0-150.9 0-43.5 0-87 0-130.5 0-21.1 0-42.4-.6-63.5 0-.3 0-.6 0-.9 0 8.6 15 17.3 30.1 25.9 45.1 16.2-28.9 32.5-57.7 48.7-86.6 2.3-4.2 4.7-8.3 7-12.5 7.7-13.7 3.7-33.4-10.8-41C373.8 532.9 355.2 536.5 347 551.1L347 551.1zM648.4 829.9c.2 19.4 5.8 39.5 17.2 55.4 12.6 17.5 28.7 29.7 48.9 37.3 36 13.5 81.3 1.5 105.8-28.1 14.3-17.3 22.3-36.6 24.1-59 1.6-19.1-3.8-39.7-13.7-56.1-9.7-15.9-24.2-29.9-41.3-37.7-20.5-9.4-41.8-12-63.9-7.7C680.7 742.8 648.9 785.2 648.4 829.9c-.2 15.7 13.9 30.7 30 30 16.4-.7 29.8-13.2 30-30 0-3.3.3-6.5.7-9.7-.4 2.7-.7 5.3-1.1 8 .9-5.8 2.4-11.4 4.7-16.8-1 2.4-2 4.8-3 7.2 1.7-3.8 3.6-7.5 5.9-11 .2-.3 1.7-2.7 1.9-2.7.1 0-5 6.1-2.3 3 1.4-1.6 2.8-3.3 4.4-4.8 1.4-1.4 2.9-2.7 4.3-4 1.9-1.7 4.8-2.5-2.5 1.9.7-.4 1.4-1 2.1-1.5 3.7-2.5 7.5-4.5 11.6-6.3-2.4 1-4.8 2-7.2 3 5.4-2.2 11-3.8 16.8-4.7-2.7.4-5.3.7-8 1.1 6.5-.9 12.9-.9 19.4 0-2.7-.4-5.3-.7-8-1.1 5.8.9 11.4 2.4 16.8 4.7-2.4-1-4.8-2-7.2-3 3.8 1.7 7.5 3.6 11 5.9.3.2 2.7 1.7 2.7 1.9 0 .1-6.1-5-3-2.3 1.6 1.4 3.3 2.8 4.8 4.4 1.4 1.4 2.7 2.9 4 4.3 1.7 1.9 2.5 4.8-1.9-2.5.4.7 1 1.4 1.5 2.1 2.5 3.7 4.5 7.5 6.3 11.6-1-2.4-2-4.8-3-7.2 2.2 5.4 3.8 11 4.7 16.8-.4-2.7-.7-5.3-1.1-8 .9 6.5.9 12.9 0 19.4.4-2.7.7-5.3 1.1-8-.9 5.8-2.4 11.4-4.7 16.8 1-2.4 2-4.8 3-7.2-1.7 3.8-3.6 7.5-5.9 11-.2.3-1.7 2.7-1.9 2.7-.1 0 5-6.1 2.3-3-1.4 1.6-2.8 3.3-4.4 4.8-1.4 1.4-2.9 2.7-4.3 4-1.9 1.7-4.8 2.5 2.5-1.9-.7.4-1.4 1-2.1 1.5-3.7 2.5-7.5 4.5-11.6 6.3 2.4-1 4.8-2 7.2-3-5.4 2.2-11 3.8-16.8 4.7 2.7-.4 5.3-.7 8-1.1-6.5.9-12.9.9-19.4 0 2.7.4 5.3.7 8 1.1-5.8-.9-11.4-2.4-16.8-4.7 2.4 1 4.8 2 7.2 3-3.8-1.7-7.5-3.6-11-5.9-.3-.2-2.7-1.7-2.7-1.9 0-.1 6.1 5 3 2.3-1.6-1.4-3.3-2.8-4.8-4.4-1.4-1.4-2.7-2.9-4-4.3-1.7-1.9-2.5-4.8 1.9 2.5-.4-.7-1-1.4-1.5-2.1-2.5-3.7-4.5-7.5-6.3-11.6 1 2.4 2 4.8 3 7.2-2.2-5.4-3.8-11-4.7-16.8.4 2.7.7 5.3 1.1 8-.4-3.2-.7-6.4-.7-9.7-.2-15.7-13.7-30.7-30-30C662.3 800.6 648.2 813 648.4 829.9zM303.7 829.9c.2 19.4 5.8 39.5 17.2 55.4 12.6 17.5 28.7 29.7 48.9 37.3 36 13.5 81.3 1.5 105.8-28.1 14.3-17.3 22.3-36.6 24.1-59 1.6-19.1-3.8-39.7-13.7-56.1-9.7-15.9-24.2-29.9-41.3-37.7-20.5-9.4-41.8-12-63.9-7.7C335.9 742.8 304.1 785.2 303.7 829.9c-.2 15.7 13.9 30.7 30 30 16.4-.7 29.8-13.2 30-30 0-3.3.3-6.5.7-9.7-.4 2.7-.7 5.3-1.1 8 .9-5.8 2.4-11.4 4.7-16.8-1 2.4-2 4.8-3 7.2 1.7-3.8 3.6-7.5 5.9-11 .2-.3 1.7-2.7 1.9-2.7.1 0-5 6.1-2.3 3 1.4-1.6 2.8-3.3 4.4-4.8 1.4-1.4 2.9-2.7 4.3-4 1.9-1.7 4.8-2.5-2.5 1.9.7-.4 1.4-1 2.1-1.5 3.7-2.5 7.5-4.5 11.6-6.3-2.4 1-4.8 2-7.2 3 5.4-2.2 11-3.8 16.8-4.7-2.7.4-5.3.7-8 1.1 6.5-.9 12.9-.9 19.4 0-2.7-.4-5.3-.7-8-1.1 5.8.9 11.4 2.4 16.8 4.7-2.4-1-4.8-2-7.2-3 3.8 1.7 7.5 3.6 11 5.9.3.2 2.7 1.7 2.7 1.9 0 .1-6.1-5-3-2.3 1.6 1.4 3.3 2.8 4.8 4.4 1.4 1.4 2.7 2.9 4 4.3 1.7 1.9 2.5 4.8-1.9-2.5.4.7 1 1.4 1.5 2.1 2.5 3.7 4.5 7.5 6.3 11.6-1-2.4-2-4.8-3-7.2 2.2 5.4 3.8 11 4.7 16.8-.4-2.7-.7-5.3-1.1-8 .9 6.5.9 12.9 0 19.4.4-2.7.7-5.3 1.1-8-.9 5.8-2.4 11.4-4.7 16.8 1-2.4 2-4.8 3-7.2-1.7 3.8-3.6 7.5-5.9 11-.2.3-1.7 2.7-1.9 2.7-.1 0 5-6.1 2.3-3-1.4 1.6-2.8 3.3-4.4 4.8-1.4 1.4-2.9 2.7-4.3 4-1.9 1.7-4.8 2.5 2.5-1.9-.7.4-1.4 1-2.1 1.5-3.7 2.5-7.5 4.5-11.6 6.3 2.4-1 4.8-2 7.2-3-5.4 2.2-11 3.8-16.8 4.7 2.7-.4 5.3-.7 8-1.1-6.5.9-12.9.9-19.4 0 2.7.4 5.3.7 8 1.1-5.8-.9-11.4-2.4-16.8-4.7 2.4 1 4.8 2 7.2 3-3.8-1.7-7.5-3.6-11-5.9-.3-.2-2.7-1.7-2.7-1.9 0-.1 6.1 5 3 2.3-1.6-1.4-3.3-2.8-4.8-4.4-1.4-1.4-2.7-2.9-4-4.3-1.7-1.9-2.5-4.8 1.9 2.5-.4-.7-1-1.4-1.5-2.1-2.5-3.7-4.5-7.5-6.3-11.6 1 2.4 2 4.8 3 7.2-2.2-5.4-3.8-11-4.7-16.8.4 2.7.7 5.3 1.1 8-.4-3.2-.7-6.4-.7-9.7-.2-15.7-13.7-30.7-30-30C317.5 800.6 303.5 813 303.7 829.9zM459.2 286.7c29.7 29.7 59.5 59.5 89.2 89.2 4.3 4.3 8.5 8.5 12.8 12.8 11.5 11.5 30.9 11.5 42.4 0 24.3-24.3 48.6-48.6 72.9-72.9 38.8-38.8 77.5-77.5 116.3-116.3 8.9-8.9 17.8-17.8 26.8-26.8 11.1-11.1 11.9-31.5 0-42.4-12-11-30.6-11.9-42.4 0-24.3 24.3-48.6 48.6-72.9 72.9C665.5 242 626.8 280.7 588 319.5c-8.9 8.9-17.8 17.8-26.8 26.8 14.1 0 28.3 0 42.4 0-29.7-29.7-59.5-59.5-89.2-89.2-4.3-4.3-8.5-8.5-12.8-12.8-11.1-11.1-31.5-11.9-42.4 0C448.2 256.2 447.4 274.8 459.2 286.7L459.2 286.7z"/></svg>