<svg xmlns="http://www.w3.org/2000/svg" enable-background="new 0 0 1024 1024" viewBox="0 0 1024 1024"><path d="M482,579.1c0,12.4,0,24.9,0,37.3c0,29.9,0,59.7,0,89.6c0,36.2,0,72.3,0,108.5c0,31.3,0,62.6,0,93.9
				c0,15.3-0.5,30.6,0,45.9c0,0.2,0,0.4,0,0.6c15-8.6,30.1-17.3,45.1-25.9c-11.8-6.2-23.6-12.5-35.4-18.7
				c-28.3-15-56.6-29.9-85-44.9c-34.3-18.1-68.6-36.2-102.8-54.3c-29.7-15.7-59.3-31.3-89-47c-14.5-7.6-28.8-15.8-43.5-23
				c-0.2-0.1-0.4-0.2-0.6-0.3c5,8.6,9.9,17.3,14.9,25.9c0-21,0-41.9,0-62.9c0-33.2,0-66.5,0-99.7c0-7.7,0-15.4,0-23.1
				c-15,8.6-30.1,17.3-45.1,25.9c28.3,14.9,56.6,29.9,84.9,44.8c44.7,23.6,89.5,47.2,134.2,70.8c10.3,5.4,20.5,10.8,30.8,16.3
				c6.1,3.2,12.3,4.5,19.1,3.6c5.9-0.8,13.3-3.3,17.2-8.3c11.9-15,23.9-30,35.8-45c19.1-24.1,38.3-48.2,57.4-72.3
				c4.4-5.5,8.8-11,13.2-16.6c5.1-6.5,8.8-12.6,8.8-21.2c0-7.4-3.3-16.1-8.8-21.2c-5.7-5.2-13.2-9.1-21.2-8.8
				c-7.4,0.3-16.4,2.7-21.2,8.8c-11.9,15-23.9,30-35.8,45c-19.1,24.1-38.3,48.2-57.4,72.3c-4.4,5.5-8.8,11-13.2,16.6
				c12.1-1.6,24.2-3.1,36.4-4.7c-28.3-14.9-56.6-29.9-84.9-44.8c-44.7-23.6-89.5-47.2-134.2-70.8c-10.3-5.4-20.5-10.8-30.8-16.3
				c-19.9-10.5-45.1,2.4-45.1,25.9c0,21,0,41.9,0,62.9c0,33.2,0,66.5,0,99.7c0,7.7,0,15.4,0,23.1c0,10.2,5.6,21,14.9,25.9
				c11.8,6.2,23.6,12.5,35.4,18.7c28.3,15,56.6,29.9,85,44.9c34.3,18.1,68.6,36.2,102.8,54.3c29.7,15.7,59.3,31.3,89,47
				c14.5,7.6,28.9,15.5,43.5,23c0.2,0.1,0.4,0.2,0.6,0.3c19.9,10.5,45.1-2.4,45.1-25.9c0-12.4,0-24.9,0-37.3c0-29.9,0-59.7,0-89.6
				c0-36.2,0-72.3,0-108.5c0-31.3,0-62.6,0-93.9c0-15.3,0.3-30.6,0-45.9c0-0.2,0-0.4,0-0.6c0-15.7-13.8-30.7-30-30
				C495.7,549.9,482,562.3,482,579.1z"/><path d="M838.3,581.1c0,21,0,41.9,0,62.9c0,33.2,0,66.5,0,99.7c0,7.7,0,15.4,0,23.1c5-8.6,9.9-17.3,14.9-25.9
				c-11.8,6.2-23.6,12.5-35.4,18.7c-28.3,15-56.6,29.9-85,44.9c-34.3,18.1-68.6,36.2-102.8,54.3c-29.7,15.7-59.3,31.3-89,47
				c-14.5,7.6-29.2,14.9-43.5,23c-0.2,0.1-0.4,0.2-0.6,0.3c15,8.6,30.1,17.3,45.1,25.9c0-12.4,0-24.9,0-37.3c0-29.9,0-59.7,0-89.6
				c0-36.2,0-72.3,0-108.5c0-31.3,0-62.6,0-93.9c0-15.3,0.5-30.6,0-45.9c0-0.2,0-0.4,0-0.6c-17.1,7.1-34.1,14.1-51.2,21.2
				c11.9,15,23.9,30,35.8,45c19.1,24.1,38.3,48.2,57.4,72.3c4.4,5.5,8.8,11,13.2,16.6c3.9,5,11.3,7.5,17.2,8.3
				c6.8,0.9,13-0.3,19.1-3.6c28.3-14.9,56.6-29.9,84.9-44.8c44.7-23.6,89.5-47.2,134.2-70.8c10.3-5.4,20.5-10.8,30.8-16.3
				c13.9-7.3,19.3-27.8,10.8-41c-9.1-14.1-26.2-18.6-41-10.8c-28.3,14.9-56.6,29.9-84.9,44.8c-44.7,23.6-89.5,47.2-134.2,70.8
				c-10.3,5.4-20.5,10.8-30.8,16.3c12.1,1.6,24.2,3.1,36.4,4.7c-11.9-15-23.9-30-35.8-45c-19.1-24.1-38.3-48.2-57.4-72.3
				c-4.4-5.5-8.8-11-13.2-16.6c-2.9-3.6-8.9-6.5-13.2-7.7c-6.5-1.8-13.4-1.1-19.5,1.5c-10.9,4.6-18.4,15.4-18.4,27.4
				c0,12.4,0,24.9,0,37.3c0,29.9,0,59.7,0,89.6c0,36.2,0,72.3,0,108.5c0,31.3,0,62.6,0,93.9c0,15.3-0.3,30.6,0,45.9
				c0,0.2,0,0.4,0,0.6c0,23.5,25.3,36.4,45.1,25.9c11.8-6.2,23.6-12.5,35.4-18.7c28.3-15,56.6-29.9,85-44.9
				c34.3-18.1,68.6-36.2,102.8-54.3c29.7-15.7,59.3-31.3,89-47c14.5-7.6,29.2-14.9,43.5-23c0.2-0.1,0.4-0.2,0.6-0.3
				c9.2-4.9,14.9-15.7,14.9-25.9c0-21,0-41.9,0-62.9c0-33.2,0-66.5,0-99.7c0-7.7,0-15.4,0-23.1c0-15.7-13.8-30.7-30-30
				C852,551.9,838.3,564.3,838.3,581.1z"/><path d="M853.1,365.1c-11.8,6.2-23.6,12.5-35.4,18.7c-28.3,15-56.6,29.9-85,44.9c-34.3,18.1-68.6,36.2-102.8,54.3
				c-29.7,15.7-59.3,31.3-89,47c-14.5,7.6-29.2,14.9-43.5,23c-0.2,0.1-0.4,0.2-0.6,0.3c10.1,0,20.2,0,30.3,0
				c-11.8-6.2-23.6-12.5-35.4-18.7c-28.3-15-56.6-29.9-85-44.9c-34.3-18.1-68.6-36.2-102.8-54.3c-29.7-15.7-59.3-31.3-89-47
				c-14.5-7.6-28.8-15.7-43.5-23c-0.2-0.1-0.4-0.2-0.6-0.3c0,17.3,0,34.5,0,51.8c11.8-6.2,23.6-12.4,35.4-18.7
				c28.3-14.9,56.6-29.9,85-44.8c34.3-18.1,68.6-36.2,102.8-54.2c29.7-15.6,59.3-31.3,89-46.9c14.5-7.6,29.2-14.9,43.5-22.9
				c0.2-0.1,0.4-0.2,0.6-0.3c-10.1,0-20.2,0-30.3,0c11.8,6.2,23.6,12.4,35.4,18.7c28.3,14.9,56.6,29.9,85,44.8
				c34.3,18.1,68.6,36.2,102.8,54.2c29.7,15.6,59.3,31.3,89,46.9c14.5,7.6,28.9,15.5,43.5,22.9c0.2,0.1,0.4,0.2,0.6,0.3
				c13.9,7.3,33.3,4,41-10.8c7.3-13.9,4.1-33.2-10.8-41c-11.9-6.3-23.8-12.5-35.7-18.8c-28.5-15-57-30.1-85.5-45.1
				c-34.4-18.2-68.9-36.3-103.3-54.5c-29.6-15.6-59.3-31.3-88.9-46.9c-14.1-7.5-28.1-15.3-42.4-22.4c-10.6-5.2-20.8-5.2-31.2,0
				c-1.6,0.8-3.1,1.6-4.7,2.5c-7.3,3.8-14.5,7.7-21.8,11.5c-26.8,14.2-53.7,28.3-80.5,42.5c-34.2,18.1-68.5,36.1-102.7,54.2
				c-31,16.3-61.9,32.6-92.9,49c-16.9,8.9-33.9,17.9-50.8,26.8c-0.8,0.4-1.6,0.8-2.4,1.3c-19.5,10.3-19.5,41.5,0,51.8
				c11.9,6.3,23.8,12.6,35.7,18.8c28.5,15.1,57,30.1,85.5,45.2c34.4,18.2,68.9,36.4,103.3,54.6c29.6,15.7,59.3,31.3,88.9,47
				c14.1,7.5,28.1,15.3,42.4,22.4c10.5,5.3,20.8,5.2,31.2,0c1.6-0.8,3.1-1.6,4.7-2.5c7.3-3.8,14.5-7.7,21.8-11.5
				c26.8-14.2,53.7-28.4,80.5-42.5c34.2-18.1,68.5-36.2,102.7-54.3c31-16.3,61.9-32.7,92.9-49c16.9-8.9,33.9-17.9,50.8-26.8
				c0.8-0.4,1.6-0.8,2.4-1.3c13.9-7.3,19.3-27.8,10.8-41C885.1,361.7,868,357.2,853.1,365.1z"/><path d="M490.8,557.9c-11.9,15-23.9,30-35.8,45c-19.1,24.1-38.3,48.2-57.4,72.3c-4.4,5.5-8.8,11-13.2,16.6
				c12.1-1.6,24.2-3.1,36.4-4.7c-15.8-8.3-31.5-16.6-47.3-25c-32.9-17.4-65.9-34.8-98.8-52.2c-28.5-15.1-57.1-30.1-85.6-45.2
				c-12.2-6.5-24.4-12.9-36.7-19.4c-28.7-15.1-57.3-30.3-86-45.4c-0.6-0.3-1.3-0.7-1.9-1c2,15.7,4,31.4,6.1,47.1
				c11.9-15,23.9-30,35.8-45.1c19.1-24.1,38.3-48.2,57.4-72.3c4.4-5.5,8.8-11.1,13.2-16.6c-12.1,1.6-24.2,3.1-36.4,4.7
				c11.8,6.2,23.6,12.5,35.4,18.7c28.3,15,56.6,29.9,85,44.9c34.3,18.1,68.6,36.2,102.8,54.3c29.7,15.7,59.3,31.3,89,47
				c14.5,7.7,28.9,15.5,43.5,23c0.2,0.1,0.4,0.2,0.6,0.3c13.9,7.3,33.3,4,41-10.8c7.3-13.9,4.1-33.2-10.8-41
				c-11.8-6.2-23.6-12.5-35.4-18.7c-28.3-15-56.6-29.9-85-44.9c-34.3-18.1-68.6-36.2-102.8-54.3c-29.7-15.7-59.3-31.3-89-47
				c-14.5-7.6-28.8-15.6-43.5-23c-0.2-0.1-0.4-0.2-0.6-0.3c-6.1-3.2-12.3-4.5-19.1-3.6c-5.9,0.8-13.3,3.3-17.2,8.3
				c-11.9,15-23.9,30-35.8,45.1c-19.1,24.1-38.3,48.2-57.4,72.3c-4.4,5.5-8.8,11.1-13.2,16.6c-6.2,7.8-9.6,15.1-8.3,25.2
				c1.2,8.9,6.1,17.6,14.3,21.9c25.6,13.5,51.1,27,76.7,40.5c13.7,7.3,27.5,14.5,41.2,21.8c26.4,14,52.9,27.9,79.3,41.9
				c33.6,17.7,67.1,35.4,100.7,53.2c19.1,10.1,38.2,20.6,57.5,30.3c0.3,0.1,0.6,0.3,0.9,0.5c6.1,3.2,12.3,4.5,19.1,3.6
				c5.9-0.8,13.3-3.3,17.2-8.3c11.9-15,23.9-30,35.8-45c19.1-24.1,38.3-48.2,57.4-72.3c4.4-5.5,8.8-11,13.2-16.6
				c5.1-6.5,8.8-12.6,8.8-21.2c0-7.4-3.3-16.1-8.8-21.2c-5.7-5.2-13.2-9.1-21.2-8.8C504.6,549.5,495.6,551.8,490.8,557.9z"/><path d="M959.5,499c-25.6,13.5-51.1,27-76.7,40.5c-13.7,7.3-27.5,14.5-41.2,21.8c-26.4,14-52.9,27.9-79.3,41.9
				c-33.6,17.7-67.1,35.4-100.7,53.2c-19.1,10.1-38.6,19.8-57.5,30.3c-0.3,0.2-0.6,0.3-0.9,0.5c12.1,1.6,24.2,3.1,36.4,4.7
				c-11.9-15-23.9-30-35.8-45c-19.1-24.1-38.3-48.2-57.4-72.3c-4.4-5.5-8.8-11-13.2-16.6c-2,15.7-4,31.4-6.1,47.1
				c11.8-6.2,23.6-12.5,35.4-18.7c28.3-15,56.6-29.9,85-44.9c34.3-18.1,68.6-36.2,102.8-54.3c29.7-15.7,59.3-31.3,89-47
				c14.5-7.6,29.2-14.9,43.5-23c0.2-0.1,0.4-0.2,0.6-0.3c-12.1-1.6-24.2-3.1-36.4-4.7c11.9,15,23.9,30,35.8,45.1
				c19.1,24.1,38.3,48.2,57.4,72.3c4.4,5.5,8.8,11.1,13.2,16.6c4.5,5.6,14.4,8.8,21.2,8.8c7.4,0,16.1-3.3,21.2-8.8
				c5.2-5.7,9.1-13.2,8.8-21.2c-0.4-8.5-3.6-14.6-8.8-21.2c-11.9-15-23.9-30-35.8-45.1c-19.1-24.1-38.3-48.2-57.4-72.3
				c-4.4-5.5-8.8-11.1-13.2-16.6c-3.9-5-11.3-7.5-17.2-8.3c-6.8-0.9-13,0.3-19.1,3.6c-11.8,6.2-23.6,12.5-35.4,18.7
				c-28.3,15-56.6,29.9-85,44.9c-34.3,18.1-68.6,36.2-102.8,54.3c-29.7,15.7-59.3,31.3-89,47c-14.5,7.6-29.2,14.9-43.5,23
				c-0.2,0.1-0.4,0.2-0.6,0.3c-8.2,4.4-13.1,13-14.3,21.9c-1.4,10.1,2.1,17.4,8.3,25.2c11.9,15,23.9,30,35.8,45
				c19.1,24.1,38.3,48.2,57.4,72.3c4.4,5.5,8.8,11,13.2,16.6c3.9,5,11.3,7.5,17.2,8.3c6.8,0.9,13-0.3,19.1-3.6
				c15.8-8.3,31.5-16.6,47.3-25c32.9-17.4,65.9-34.8,98.8-52.2c28.5-15.1,57.1-30.1,85.6-45.2c12.2-6.5,24.4-12.9,36.7-19.4
				c28.7-15.1,57.3-30.3,86-45.4c0.6-0.3,1.3-0.7,1.9-1c13.9-7.3,19.3-27.8,10.8-41C991.5,495.7,974.4,491.2,959.5,499z"/><path d="M883.4,365.1c-11.8-6.2-23.6-12.4-35.4-18.7c-28.3-14.9-56.6-29.9-85-44.8
				c-34.3-18.1-68.6-36.2-102.8-54.2c-29.7-15.6-59.3-31.3-89-46.9c-14.5-7.6-28.8-15.7-43.5-22.9c-0.2-0.1-0.4-0.2-0.6-0.3
				c2,15.7,4,31.4,6.1,47.1c11.9-15,23.9-30,35.8-45c19.1-24.1,38.3-48.2,57.4-72.3c4.4-5.5,8.8-11,13.2-16.6
				c-12.1,1.6-24.2,3.1-36.4,4.7c11.8,6.2,23.6,12.5,35.4,18.7c28.3,15,56.6,29.9,85,44.9c34.3,18.1,68.6,36.2,102.8,54.4
				c29.7,15.7,59.3,31.4,89,47c14.5,7.6,28.8,15.8,43.5,23c0.2,0.1,0.4,0.2,0.6,0.3c-2-15.7-4-31.4-6.1-47.1
				c-11.9,15-23.9,29.9-35.8,44.9c-19.1,24-38.3,48.1-57.4,72.1c-4.4,5.5-8.8,11-13.2,16.5c-5.1,6.5-8.8,12.6-8.8,21.2
				c0,7.4,3.3,16.1,8.8,21.2c5.7,5.2,13.2,9.1,21.2,8.8c7.4-0.3,16.4-2.7,21.2-8.8c11.9-15,23.9-29.9,35.8-44.9
				c19.1-24,38.3-48.1,57.4-72.1c4.4-5.5,8.8-11,13.2-16.5c6.2-7.8,9.6-15.1,8.3-25.2c-1.2-8.9-6.1-17.6-14.3-21.9
				c-11.8-6.2-23.6-12.5-35.4-18.7c-28.3-15-56.6-29.9-85-44.9c-34.3-18.1-68.6-36.2-102.8-54.4c-29.7-15.7-59.3-31.4-89-47
				c-14.5-7.7-28.8-15.6-43.5-23c-0.2-0.1-0.4-0.2-0.6-0.3c-6.1-3.2-12.3-4.5-19.1-3.6c-5.9,0.8-13.3,3.3-17.2,8.3
				c-11.9,15-23.9,30-35.8,45c-19.1,24.1-38.3,48.2-57.4,72.3c-4.4,5.5-8.8,11-13.2,16.6c-6.2,7.8-9.6,15.1-8.3,25.2
				c1.2,8.9,6.1,17.6,14.3,21.9c11.8,6.2,23.6,12.4,35.4,18.7c28.3,14.9,56.6,29.9,85,44.8c34.3,18.1,68.6,36.2,102.8,54.2
				c29.7,15.6,59.3,31.3,89,46.9c14.5,7.6,28.9,15.5,43.5,22.9c0.2,0.1,0.4,0.2,0.6,0.3c13.9,7.3,33.3,4,41-10.8
				C901.5,392.2,898.2,372.9,883.4,365.1z"/><path d="M496.9,177.1c-11.8,6.2-23.6,12.4-35.4,18.7c-28.3,14.9-56.6,29.9-85,44.8
				c-34.3,18.1-68.6,36.2-102.8,54.2c-29.7,15.6-59.3,31.3-89,46.9c-14.5,7.6-29.2,14.9-43.5,22.9c-0.2,0.1-0.4,0.2-0.6,0.3
				c12.1,1.6,24.2,3.1,36.4,4.7c-11.9-15-23.9-29.9-35.8-44.9c-19.1-24-38.3-48.1-57.4-72.1c-4.4-5.5-8.8-11-13.2-16.5
				c-2,15.7-4,31.4-6.1,47.1c11.8-6.2,23.6-12.5,35.4-18.7c28.3-15,56.6-29.9,85-44.9c34.3-18.1,68.6-36.2,102.8-54.4
				c29.7-15.7,59.3-31.4,89-47c14.5-7.7,29.2-14.9,43.5-23c0.2-0.1,0.4-0.2,0.6-0.3c-12.1-1.6-24.2-3.1-36.4-4.7
				c11.9,15,23.9,30,35.8,45c19.1,24.1,38.3,48.2,57.4,72.3c4.4,5.5,8.8,11,13.2,16.6c4.5,5.6,14.4,8.8,21.2,8.8
				c7.4,0,16.1-3.3,21.2-8.8c5.2-5.7,9.1-13.2,8.8-21.2c-0.4-8.4-3.6-14.6-8.8-21.2c-11.9-15-23.9-30-35.8-45
				c-19.1-24.1-38.3-48.2-57.4-72.3c-4.4-5.5-8.8-11-13.2-16.6c-3.9-5-11.3-7.5-17.2-8.3c-6.8-0.9-13,0.3-19.1,3.6
				c-11.8,6.2-23.6,12.5-35.4,18.7c-28.3,15-56.6,29.9-85,44.9c-34.3,18.1-68.6,36.2-102.8,54.4c-29.7,15.7-59.3,31.4-89,47
				c-14.5,7.7-29.2,14.9-43.5,23c-0.2,0.1-0.4,0.2-0.6,0.3c-8.2,4.4-13.1,13-14.3,21.9c-1.4,10.1,2.1,17.4,8.3,25.2
				c11.9,15,23.9,29.9,35.8,44.9c19.1,24,38.3,48.1,57.4,72.1c4.4,5.5,8.8,11,13.2,16.5c4,5,11.3,7.5,17.2,8.3
				c6.8,0.9,12.9-0.3,19.1-3.6c11.8-6.2,23.6-12.4,35.4-18.7c28.3-14.9,56.6-29.9,85-44.8c34.3-18.1,68.6-36.2,102.8-54.2
				c29.7-15.6,59.3-31.3,89-46.9c14.5-7.6,29.2-14.9,43.5-22.9c0.2-0.1,0.4-0.2,0.6-0.3c13.9-7.3,19.3-27.8,10.8-41
				C528.8,173.7,511.7,169.3,496.9,177.1z"/></svg>